<svg width="20" height="20" viewBox="0 0 20 20" fill="none" xmlns="http://www.w3.org/2000/svg">
<path d="M4.49967 18.3334C4.05765 18.3334 3.63372 18.1578 3.32116 17.8453C3.0086 17.5327 2.83301 17.1088 2.83301 16.6668V3.33342C2.83301 2.89139 3.0086 2.46747 3.32116 2.15491C3.63372 1.84235 4.05765 1.66675 4.49967 1.66675H11.1663C11.4301 1.66632 11.6914 1.71809 11.9351 1.81906C12.1788 1.92003 12.4001 2.06822 12.5863 2.25508L15.5763 5.24508C15.7637 5.43134 15.9123 5.65287 16.0136 5.89689C16.1149 6.1409 16.1668 6.40256 16.1663 6.66675V16.6668C16.1663 17.1088 15.9907 17.5327 15.6782 17.8453C15.3656 18.1578 14.9417 18.3334 14.4997 18.3334H4.49967Z" stroke="#0057D9" stroke-width="2.08333" stroke-linecap="round" stroke-linejoin="round"/>
<path d="M11.167 1.66675V5.83341C11.167 6.05443 11.2548 6.26639 11.4111 6.42267C11.5674 6.57895 11.7793 6.66675 12.0003 6.66675H16.167" stroke="#0057D9" stroke-width="2.08333" stroke-linecap="round" stroke-linejoin="round"/>
<path d="M7.83366 7.5H6.16699" stroke="#0057D9" stroke-width="2.08333" stroke-linecap="round" stroke-linejoin="round"/>
<path d="M12.8337 10.8334H6.16699" stroke="#0057D9" stroke-width="2.08333" stroke-linecap="round" stroke-linejoin="round"/>
<path d="M12.8337 14.1666H6.16699" stroke="#0057D9" stroke-width="2.08333" stroke-linecap="round" stroke-linejoin="round"/>
</svg>
