<svg width="21" height="22" viewBox="0 0 21 22" fill="none" xmlns="http://www.w3.org/2000/svg">
<path d="M13.25 20.2505V12.2505C13.25 11.9853 13.1446 11.7309 12.9571 11.5434C12.7696 11.3558 12.5152 11.2505 12.25 11.2505H8.25C7.98478 11.2505 7.73043 11.3558 7.54289 11.5434C7.35536 11.7309 7.25 11.9853 7.25 12.2505V20.2505" stroke="#666666" stroke-width="2.5" stroke-linecap="round" stroke-linejoin="round"/>
<path d="M1.25 9.25048C1.24993 8.95955 1.31333 8.6721 1.43579 8.4082C1.55824 8.14429 1.7368 7.91028 1.959 7.72248L8.959 1.72248C9.31999 1.41739 9.77736 1.25 10.25 1.25C10.7226 1.25 11.18 1.41739 11.541 1.72248L18.541 7.72248C18.7632 7.91028 18.9418 8.14429 19.0642 8.4082C19.1867 8.6721 19.2501 8.95955 19.25 9.25048V18.2505C19.25 18.7809 19.0393 19.2896 18.6642 19.6647C18.2891 20.0398 17.7804 20.2505 17.25 20.2505H3.25C2.71957 20.2505 2.21086 20.0398 1.83579 19.6647C1.46071 19.2896 1.25 18.7809 1.25 18.2505V9.25048Z" stroke="#666666" stroke-width="2.5" stroke-linecap="round" stroke-linejoin="round"/>
</svg>
