<svg width="20" height="20" viewBox="0 0 20 20" fill="none" xmlns="http://www.w3.org/2000/svg">
<g clip-path="url(#clip0_33_700)">
<path d="M4.49967 18.3333C4.05765 18.3333 3.63372 18.1577 3.32116 17.8451C3.0086 17.5326 2.83301 17.1087 2.83301 16.6666V3.3333C2.83301 2.89127 3.0086 2.46734 3.32116 2.15478C3.63372 1.84222 4.05765 1.66663 4.49967 1.66663H11.1663C11.4301 1.6662 11.6914 1.71796 11.9351 1.81894C12.1788 1.91991 12.4001 2.06809 12.5863 2.25496L15.5763 5.24496C15.7637 5.43122 15.9123 5.65275 16.0136 5.89676C16.1149 6.14078 16.1668 6.40244 16.1663 6.66663V16.6666C16.1663 17.1087 15.9907 17.5326 15.6782 17.8451C15.3656 18.1577 14.9417 18.3333 14.4997 18.3333H4.49967Z" stroke="#0057D9" stroke-width="2.08333" stroke-linecap="round" stroke-linejoin="round"/>
<path d="M11.167 1.66663V5.83329C11.167 6.05431 11.2548 6.26627 11.4111 6.42255C11.5674 6.57883 11.7793 6.66663 12.0003 6.66663H16.167" stroke="#0057D9" stroke-width="2.08333" stroke-linecap="round" stroke-linejoin="round"/>
<path d="M7 12.5L8.66667 14.1667L12 10.8334" stroke="#0057D9" stroke-width="2.08333" stroke-linecap="round" stroke-linejoin="round"/>
</g>
<defs>
<clipPath id="clip0_33_700">
<rect width="20" height="20" fill="white"/>
</clipPath>
</defs>
</svg>
