<svg width="16" height="16" viewBox="0 0 16 16" fill="none" xmlns="http://www.w3.org/2000/svg">
<path d="M3.99935 14.6666C3.64573 14.6666 3.30659 14.5262 3.05654 14.2761C2.80649 14.0261 2.66602 13.6869 2.66602 13.3333V2.66665C2.66602 2.31303 2.80649 1.97389 3.05654 1.72384C3.30659 1.47379 3.64573 1.33332 3.99935 1.33332H9.33268C9.54372 1.33297 9.75274 1.37438 9.9477 1.45516C10.1427 1.53594 10.3197 1.65449 10.4687 1.80398L12.8607 4.19598C13.0106 4.34499 13.1295 4.52221 13.2105 4.71742C13.2915 4.91263 13.333 5.12196 13.3327 5.33332V13.3333C13.3327 13.6869 13.1922 14.0261 12.9422 14.2761C12.6921 14.5262 12.353 14.6666 11.9993 14.6666H3.99935Z" stroke="#666666" stroke-width="1.33333" stroke-linecap="round" stroke-linejoin="round"/>
<path d="M9.33398 1.33331V4.66665C9.33398 4.84346 9.40422 5.01303 9.52925 5.13805C9.65427 5.26308 9.82384 5.33331 10.0007 5.33331H13.334" stroke="#666666" stroke-width="1.33333" stroke-linecap="round" stroke-linejoin="round"/>
<path d="M6.66732 6H5.33398" stroke="#666666" stroke-width="1.33333" stroke-linecap="round" stroke-linejoin="round"/>
<path d="M10.6673 8.66669H5.33398" stroke="#666666" stroke-width="1.33333" stroke-linecap="round" stroke-linejoin="round"/>
<path d="M10.6673 11.3333H5.33398" stroke="#666666" stroke-width="1.33333" stroke-linecap="round" stroke-linejoin="round"/>
</svg>
