<svg width="21" height="21" viewBox="0 0 21 21" fill="none" xmlns="http://www.w3.org/2000/svg">
<path d="M11.763 14.2706C11.9523 14.3576 12.1656 14.3774 12.3677 14.3269C12.5698 14.2765 12.7487 14.1586 12.8749 13.9929L13.2003 13.5666C13.3711 13.3389 13.5925 13.1541 13.8471 13.0268C14.1017 12.8996 14.3824 12.8333 14.667 12.8333H17.417C17.9032 12.8333 18.3695 13.0264 18.7134 13.3703C19.0572 13.7141 19.2503 14.1804 19.2503 14.6666V17.4166C19.2503 17.9029 19.0572 18.3692 18.7134 18.713C18.3695 19.0568 17.9032 19.25 17.417 19.25C13.0409 19.25 8.84408 17.5116 5.74973 14.4172C2.65538 11.3229 0.916992 7.12603 0.916992 2.74996C0.916992 2.26373 1.11015 1.79741 1.45396 1.4536C1.79778 1.10978 2.2641 0.916626 2.75033 0.916626H5.50033C5.98656 0.916626 6.45287 1.10978 6.79669 1.4536C7.1405 1.79741 7.33366 2.26373 7.33366 2.74996V5.49996C7.33366 5.78458 7.26739 6.06528 7.14011 6.31985C7.01282 6.57442 6.82802 6.79586 6.60033 6.96663L6.17133 7.28838C6.00304 7.41687 5.88443 7.59966 5.83563 7.8057C5.78684 8.01173 5.81088 8.2283 5.90366 8.41863C7.15645 10.9632 9.21688 13.021 11.763 14.2706Z" stroke="#0057D9" stroke-width="1.83333" stroke-linecap="round" stroke-linejoin="round"/>
</svg>
