<svg width="20" height="20" viewBox="0 0 20 20" fill="none" xmlns="http://www.w3.org/2000/svg">
<g clip-path="url(#clip0_88_2728)">
<path d="M10.0013 18.3333C14.6037 18.3333 18.3346 14.6023 18.3346 9.99996C18.3346 5.39759 14.6037 1.66663 10.0013 1.66663C5.39893 1.66663 1.66797 5.39759 1.66797 9.99996C1.66797 14.6023 5.39893 18.3333 10.0013 18.3333Z" stroke="#0057D9" stroke-width="2.08333" stroke-linecap="round" stroke-linejoin="round"/>
<path d="M7.57422 7.49999C7.77014 6.94304 8.15685 6.47341 8.66585 6.17426C9.17485 5.87512 9.7733 5.76577 10.3552 5.86558C10.9371 5.96539 11.4649 6.26792 11.8451 6.71959C12.2253 7.17126 12.4334 7.74292 12.4326 8.33332C12.4326 9.99999 9.93255 10.8333 9.93255 10.8333" stroke="#0057D9" stroke-width="2.08333" stroke-linecap="round" stroke-linejoin="round"/>
<path d="M10 14.1666H10.0083" stroke="#0057D9" stroke-width="2.08333" stroke-linecap="round" stroke-linejoin="round"/>
</g>
<defs>
<clipPath id="clip0_88_2728">
<rect width="20" height="20" fill="white"/>
</clipPath>
</defs>
</svg>
