<svg width="20" height="20" viewBox="0 0 20 20" fill="none" xmlns="http://www.w3.org/2000/svg">
<path d="M17.5003 2.5H2.50033C2.04009 2.5 1.66699 2.8731 1.66699 3.33333V5.83333C1.66699 6.29357 2.04009 6.66667 2.50033 6.66667H17.5003C17.9606 6.66667 18.3337 6.29357 18.3337 5.83333V3.33333C18.3337 2.8731 17.9606 2.5 17.5003 2.5Z" stroke="#F5A623" stroke-width="2.08333" stroke-linecap="round" stroke-linejoin="round"/>
<path d="M3.33301 6.66675V15.8334C3.33301 16.2754 3.5086 16.6994 3.82116 17.0119C4.13372 17.3245 4.55765 17.5001 4.99967 17.5001H14.9997C15.4417 17.5001 15.8656 17.3245 16.1782 17.0119C16.4907 16.6994 16.6663 16.2754 16.6663 15.8334V6.66675" stroke="#F5A623" stroke-width="2.08333" stroke-linecap="round" stroke-linejoin="round"/>
<path d="M8.33301 10H11.6663" stroke="#F5A623" stroke-width="2.08333" stroke-linecap="round" stroke-linejoin="round"/>
</svg>
