<svg width="20" height="20" viewBox="0 0 20 20" fill="none" xmlns="http://www.w3.org/2000/svg">
<path d="M4.50033 11.6666L5.75033 9.24996C5.88622 8.98007 6.09293 8.75221 6.34833 8.59075C6.60374 8.42928 6.89824 8.34029 7.20032 8.33329H16.167M16.167 8.33329C16.4216 8.33284 16.6729 8.39074 16.9017 8.50253C17.1304 8.61432 17.3305 8.77703 17.4866 8.97818C17.6427 9.17933 17.7507 9.41357 17.8021 9.66292C17.8536 9.91227 17.8473 10.1701 17.7837 10.4166L16.5003 15.4166C16.4075 15.7763 16.1972 16.0946 15.9028 16.321C15.6084 16.5475 15.2467 16.6691 14.8753 16.6666H2.83366C2.39163 16.6666 1.96771 16.491 1.65515 16.1785C1.34259 15.8659 1.16699 15.442 1.16699 15V4.16662C1.16699 3.7246 1.34259 3.30067 1.65515 2.98811C1.96771 2.67555 2.39163 2.49996 2.83366 2.49996H6.08366C6.3624 2.49723 6.63737 2.56445 6.88341 2.69547C7.12945 2.8265 7.33869 3.01715 7.49199 3.24996L8.16699 4.24996C8.31875 4.4804 8.52535 4.66956 8.76824 4.80046C9.01114 4.93136 9.28273 4.99991 9.55866 4.99996H14.5003C14.9424 4.99996 15.3663 5.17555 15.6788 5.48811C15.9914 5.80067 16.167 6.2246 16.167 6.66662V8.33329Z" stroke="#F5A623" stroke-width="2.08333" stroke-linecap="round" stroke-linejoin="round"/>
</svg>
