<svg width="20" height="20" viewBox="0 0 20 20" fill="none" xmlns="http://www.w3.org/2000/svg">
<g clip-path="url(#clip0_88_2487)">
<path d="M15.8333 9.16669H4.16667C3.24619 9.16669 2.5 9.91288 2.5 10.8334V16.6667C2.5 17.5872 3.24619 18.3334 4.16667 18.3334H15.8333C16.7538 18.3334 17.5 17.5872 17.5 16.6667V10.8334C17.5 9.91288 16.7538 9.16669 15.8333 9.16669Z" stroke="#9B59B6" stroke-width="2.08333" stroke-linecap="round" stroke-linejoin="round"/>
<path d="M5.83203 9.16663V5.83329C5.83203 4.72822 6.27102 3.66842 7.05242 2.88701C7.83382 2.10561 8.89363 1.66663 9.9987 1.66663C11.1038 1.66663 12.1636 2.10561 12.945 2.88701C13.7264 3.66842 14.1654 4.72822 14.1654 5.83329V9.16663" stroke="#9B59B6" stroke-width="2.08333" stroke-linecap="round" stroke-linejoin="round"/>
</g>
<defs>
<clipPath id="clip0_88_2487">
<rect width="20" height="20" fill="white"/>
</clipPath>
</defs>
</svg>
