<svg width="21" height="21" viewBox="0 0 21 21" fill="none" xmlns="http://www.w3.org/2000/svg">
<path d="M1.82604 14.0632C1.96083 14.4032 1.99084 14.7757 1.91221 15.1329L0.935959 18.1488C0.904503 18.3017 0.912636 18.4601 0.959587 18.6091C1.00654 18.758 1.09075 18.8924 1.20424 18.9997C1.31772 19.1069 1.45673 19.1834 1.60806 19.2219C1.75939 19.2603 1.91804 19.2595 2.06896 19.2194L5.19754 18.3046C5.53462 18.2377 5.88369 18.267 6.20496 18.3889C8.1624 19.3031 10.3798 19.4964 12.4659 18.935C14.5521 18.3736 16.3729 17.0934 17.6071 15.3203C18.8413 13.5472 19.4097 11.3951 19.2118 9.24385C19.014 7.09256 18.0627 5.08027 16.5258 3.56202C14.9889 2.04377 12.9651 1.11713 10.8116 0.945584C8.65802 0.774037 6.51308 1.36861 4.7552 2.62441C2.99731 3.8802 1.73945 5.71651 1.20353 7.80935C0.66761 9.90218 0.888081 12.1171 1.82604 14.0632Z" stroke="#1FB996" stroke-width="1.83333" stroke-linecap="round" stroke-linejoin="round"/>
</svg>
