<svg width="20" height="20" viewBox="0 0 20 20" fill="none" xmlns="http://www.w3.org/2000/svg">
<path d="M16.1663 8.33335C16.1663 12.4942 11.5505 16.8275 10.0005 18.1659C9.85611 18.2744 9.68034 18.3331 9.49967 18.3331C9.31901 18.3331 9.14324 18.2744 8.99884 18.1659C7.44884 16.8275 2.83301 12.4942 2.83301 8.33335C2.83301 6.56524 3.53539 4.86955 4.78563 3.61931C6.03587 2.36907 7.73156 1.66669 9.49967 1.66669C11.2678 1.66669 12.9635 2.36907 14.2137 3.61931C15.464 4.86955 16.1663 6.56524 16.1663 8.33335Z" stroke="#E91A20" stroke-width="2.08333" stroke-linecap="round" stroke-linejoin="round"/>
<path d="M9.5 10.8333C10.8807 10.8333 12 9.71402 12 8.33331C12 6.9526 10.8807 5.83331 9.5 5.83331C8.11929 5.83331 7 6.9526 7 8.33331C7 9.71402 8.11929 10.8333 9.5 10.8333Z" stroke="#E91A20" stroke-width="2.08333" stroke-linecap="round" stroke-linejoin="round"/>
</svg>
