<svg width="46" height="45" viewBox="0 0 46 45" fill="none" xmlns="http://www.w3.org/2000/svg">
<g clip-path="url(#clip0_71_419)">
<path d="M9.11933 32.5099L8.0166 28.3828L33.7757 28.3788L37.4745 14.4923L31.9144 17.1054L30.2037 13.4017L45.9658 6.00012L44.6247 11.1259L42.25 12.259L36.8541 32.4995L9.11933 32.5099Z" fill="#E91A20"/>
<path d="M11.9291 27.3852L7.75649 27.415L3.71861 12.2463L1.33992 11.1288L0 5.99838L15.7632 13.4029L14.0519 17.106L8.49296 14.4929L11.9291 27.3852Z" fill="#E91A20"/>
<path d="M22.9873 9.68084L18.5786 19.2372L14.9229 17.511L22.9867 0L31.0438 17.511L27.3926 19.2372L22.9873 9.68084Z" fill="#E91A20"/>
<path d="M32.1431 41.8258C32.1431 43.505 30.7998 44.8663 29.1428 44.8663C27.4859 44.8663 26.1426 43.505 26.1426 41.8258C26.1426 40.1467 27.4859 38.7853 29.1428 38.7853C30.7998 38.7853 32.1431 40.1467 32.1431 41.8258ZM27.6421 43.3042C28.3118 44.081 29.4955 44.1905 30.3101 43.6077C30.9458 43.1533 31.17 42.438 31.1377 41.6687C31.1088 40.9929 30.7845 40.3297 30.2048 39.9757C29.5532 39.5776 28.7851 39.5655 28.1227 39.9499C26.9566 40.6269 26.8564 42.3932 27.6421 43.3042Z" fill="#E91A20"/>
<path d="M42.209 44.8399C42.209 44.9208 42.1366 45.0172 42.0969 44.9971C41.905 44.899 41.8179 44.7017 41.6797 44.5571L40.6229 43.4493L39.4352 42.1907C39.0616 41.7948 38.6953 41.4265 38.3104 41.0255L38.3042 44.8801L37.3984 44.8778L37.4058 38.7859C37.677 38.8283 37.7166 39.0297 37.8428 39.1628L38.8708 40.2419L40.0585 41.5011C40.4496 41.9159 40.8368 42.302 41.2376 42.7236L41.2518 38.8869C41.5835 38.8553 41.8671 38.8513 42.2017 38.8892L42.2079 44.8411L42.209 44.8399Z" fill="#E91A20"/>
<path d="M16.4758 42.4764L14.9179 42.4621C14.8789 42.1649 14.9026 41.9062 14.9015 41.6153H17.33L17.3317 44.085C16.7605 44.6099 16.0133 44.8572 15.2513 44.8468L14.9507 44.8428C13.1625 44.8193 11.8022 43.3237 11.9782 41.5241C12.1328 39.9442 13.3872 38.8003 14.9575 38.7968C15.8152 38.7951 16.5952 39.0601 17.1817 39.7325L16.5329 40.375C15.8061 39.5443 14.5522 39.4279 13.7054 40.1105C13.2049 40.5138 12.9972 41.1087 12.9649 41.7214C12.897 42.9973 13.8107 44.0007 15.0747 43.9743C15.5695 43.964 16.0563 43.9054 16.4797 43.61L16.4769 42.4753L16.4758 42.4764Z" fill="#E91A20"/>
<path d="M45.5306 42.5779L43.5068 42.5923L43.5029 44.0121L45.9733 44.0334C46.0146 44.3334 45.9908 44.5921 45.9902 44.883H42.4873L42.4924 38.8714H45.9733C46.0095 39.1909 46.0078 39.4594 45.9744 39.7744L43.5068 39.7847V41.7312H45.5402L45.5311 42.5785L45.5306 42.5779Z" fill="#E91A20"/>
<path d="M6.69243 43.7993L4.33016 43.793L3.87786 44.879L2.90137 44.8749L5.51781 38.7337L8.14331 44.8514C7.81611 44.9191 7.49741 44.8675 7.14983 44.8807L6.69243 43.7993ZM6.31316 42.9078L5.51328 40.9292L4.6885 42.9336L6.31316 42.9078Z" fill="#E91A20"/>
<path d="M20.9499 43.7964L18.6437 43.7941L18.2056 44.879L17.2393 44.8704L19.8161 38.8398L22.398 44.8497C22.064 44.9226 21.747 44.8658 21.3949 44.8818L20.9505 43.797L20.9499 43.7964ZM20.5967 42.9164L19.8014 41.017L19.0037 42.9336L20.5967 42.9164Z" fill="#E91A20"/>
<path d="M24.7806 44.7872C23.6309 45.0104 22.591 44.6443 22.0566 43.5819C22.3431 43.4327 22.5655 43.2916 22.8599 43.1952C23.1424 43.7551 23.6456 44.0001 24.2298 43.9766C24.5904 43.9622 24.9748 43.8716 25.1067 43.4792C25.1548 43.3358 25.1667 43.0587 25.092 42.917C24.6827 42.1414 23.31 42.2131 22.6171 41.1833C22.2774 40.6785 22.3102 39.9407 22.6539 39.4703C23.0184 38.9707 23.533 38.794 24.1144 38.7985C24.7971 38.8043 25.4526 39.0871 25.782 39.7308C25.5732 39.9459 25.3309 40.0497 25.0591 40.2207C24.844 39.791 24.4444 39.6298 23.9966 39.6602C23.7396 39.6774 23.49 39.799 23.3824 40.0027C23.2624 40.2299 23.2924 40.5724 23.49 40.7697C24.1523 41.4329 26.1681 41.5126 26.1024 43.2859C26.0741 44.0443 25.5528 44.638 24.7801 44.7878L24.7806 44.7872Z" fill="#E91A20"/>
<path d="M2.74358 44.8686L1.78068 44.8789L1.78181 39.6705L0.28961 39.6544C0.180922 39.359 0.0790264 39.1049 0.015625 38.8088H4.49448L4.14181 39.6648L2.74189 39.6699L2.74358 44.8686Z" fill="#E91A20"/>
<path d="M35.7501 44.0213L35.7575 44.8824H32.3672L32.3683 38.8697L33.3301 38.8691L33.3284 44.0224L35.7501 44.0213Z" fill="#E91A20"/>
<path d="M8.02832 43.9932C8.24117 43.9238 8.37816 43.9915 8.57403 43.9634C8.83499 43.9261 9.11577 43.6863 9.11747 43.3753L9.13615 39.6722L8.33287 39.6665L8.03851 38.81H10.1002L10.0668 43.4832C10.0617 44.1716 9.49052 44.6644 8.8933 44.7998C8.71102 44.8411 8.57403 44.8239 8.39514 44.8858L8.02832 43.9943V43.9932Z" fill="#E91A20"/>
<path d="M37.0618 38.8662H36.1006V44.8824H37.0618V38.8662Z" fill="#E91A20"/>
</g>
<defs>
<clipPath id="clip0_71_419">
<rect width="46" height="45" fill="white"/>
</clipPath>
</defs>
</svg>
